<svg xmlns="http://www.w3.org/2000/svg" width="141.97mm" height="79mm" viewBox="0 0 402.44 223.94">
  <title>Ресурс 1</title>
  <g id="bee46de7-54e9-4ca3-8c1f-ccb295425ad8" data-name="Слой 2">
    <g id="e6599a0f-0c2e-4da7-b979-c104b7e176b0" data-name="Layer 1">
      <g>
        <path d="M297.6,203.12a471.74,471.74,0,0,0-96.38,16.73,471.73,471.73,0,0,0-96.37-16.73c-16.34-1-28.78-.26-38.16,1.22l3.35,15s10.39-11.69,52.61-9.09a385.32,385.32,0,0,1,78.57,13.64A385.16,385.16,0,0,1,279.8,210.3c42.21-2.6,52.6,9.09,52.6,9.09l3.35-15C326.37,202.86,313.93,202.12,297.6,203.12Z" fill="#8795cb"/>
        <path d="M310.4,190.53c-58.65,3.62-109.18,18.95-109.18,18.95S150.69,194.15,92,190.53c-26.76-1.65-44.29.84-55.48,4l3.77,16.86s12.74-14.33,64.52-11.14A472.14,472.14,0,0,1,201.22,217a472.15,472.15,0,0,1,96.38-16.72c51.77-3.19,64.51,11.14,64.51,11.14l3.77-16.86C354.7,191.37,337.16,188.88,310.4,190.53Z" fill="#667ab9"/>
        <path d="M323,108.28c-12.63.57-27.08,2-41.53,3.88a84.82,84.82,0,1,0-160.58,0c-14.44-1.84-28.9-3.31-41.52-3.88C19,105.57,0,115.5,0,115.5l19,84.82S33.38,184.08,92,187.69s109.18,18.95,109.18,18.95,50.53-15.34,109.18-18.95,73.09,12.63,73.09,12.63l18.95-84.82S383.49,105.57,323,108.28Z" fill="#667ab9"/>
        <path d="M121.15,84.82a80.15,80.15,0,0,0,4.27,25.81l2.46,7.21-7.55-1c-16-2.05-29.83-3.33-41.13-3.85-44.6-2-66.08,3-73.67,5.47L22,192.37c9.17-5.09,29.32-11.94,70.29-9.43,53.45,3.3,100.69,16.38,108.89,18.75,8.2-2.37,55.44-15.45,108.89-18.75,41-2.51,61.12,4.34,70.29,9.43l16.51-73.88c-7.59-2.44-29.06-7.46-73.66-5.47-11.31.52-25.15,1.8-41.13,3.85l-7.55,1,2.45-7.21A80.07,80.07,0,1,0,121.15,84.82Z" fill="#fff"/>
        <g>
          <path d="M252,125.59c-6.6,4.47,40.66-28.45,3.22-81.88-22-27-62.47-33.76-92.81-10,0,0-47.84,35.5-8.35,92.66,0,0-28.95-42.15,4.22-80.25,22.33-21.53,55.07-31.62,84.9-5.27,40.51,35.88,8.82,84.73,8.82,84.73Z" fill="#4d6aaf" fill-rule="evenodd"/>
          <path d="M224.33,83.92c-30.58-20.35-38.68-24.22-54.49-32.78C158.73,45.07,144.68,40.4,142.09,44c-.6.8-6.16,9,37.72,41.43,31.71,23.43,58.47,36.55,69.29,38.3,2.05.35-23.4-.29-72.75-35.88-33.22-23.95-44.44-39.56-40.1-47.22,3-5.17,20.41.56,36.22,9.13,24.88,13.6,51.86,34.18,51.86,34.18Z" fill="#4d6aaf" fill-rule="evenodd"/>
          <path d="M166,84a126.6,126.6,0,0,0-14.74-7.27c-8.56-3.56-15.92-5-17.3-3-.47.7-5.08,7.56,32.24,35.6,27,20.24,44.56,26.49,53.69,28,1.77.35-17.44,2.55-56.3-26.18-28.08-20.78-38.27-33.15-34.67-39.62,2.42-4.42,14.24-.19,21.87,3.43,5.17,2.37,15.21,9,15.21,9Z" fill="#4d6aaf" fill-rule="evenodd"/>
          <path d="M227.92,24.11A90.77,90.77,0,0,0,216,18.48c-7-2.89-13.07-4.36-14.24-2.69-.36.62-2.25,5.64,21.75,24.08,14.72,11.24,26,16.05,36.76,19.36,1.34.43-16.07-1.27-40-18.72C202.68,27.79,194.8,19.25,197.71,14c1.73-3,11.57.47,17.79,3.39,4.2,2,12.42,6.71,12.42,6.71Z" fill="#4d6aaf" fill-rule="evenodd"/>
          <path d="M210.21,38.21C205.39,35.49,191,28,185.13,25.6c-8.54-3.67-15.85-5.09-17.3-3-.48.71-5.13,7.51,32.25,35.49,27,20.27,49.53,29.7,58.63,31.23,1.75.28-22.33-.58-61.18-29.31-28.21-20.81-38.29-33.16-34.66-39.64,2.39-4.42,14.1-.19,21.81,3.36,5.17,2.38,25.53,14.43,25.53,14.43Z" fill="#4d6aaf" fill-rule="evenodd"/>
          <path d="M240.45,36.26c-2.55-1.94-10.74-6.51-37.79,27.84-25.27,32-37.47,57.66-39.23,68.46-.34,2.07-.36-19.76,35.54-70.22C217.62,36.08,235.45,25,241.52,33.42c3.42,4.91,2.51,5.42-1.07,2.84Z" fill="#4d6aaf" fill-rule="evenodd"/>
          <path d="M235.66,33.72c2.1,1.37,6.28,6.73-11,35.61-15.11,25.23-28.45,43.67-36.3,52.73-1.1,1.23,10.57-10.41,37.83-51.46,14.27-21.46,19.23-36.36,11.19-38.45-4.59-1.22-4.75-.46-1.75,1.57Z" fill="#4d6aaf" fill-rule="evenodd"/>
          <path d="M164.83,75.79C185,41,215.17,22.05,235,34.51s18.09,44.59-5.95,78c-.29.29-.47.59-.75.89l1.06-1.3c26.41-32,28.72-67.91,7.62-80.61C211,15.84,179.77,40.19,163,71.46c-10.39,19.25-10.66,37.25-5.61,51.83-3.87-14.14-1.85-31.38,7.47-47.5Z" fill="#4d6aaf" fill-rule="evenodd"/>
        </g>
        <g>
          <path d="M69.38,153.15q0,8.91-6.35,14.13-5.94,4.78-15.06,4.79a29,29,0,0,1-6.59-.63,23.39,23.39,0,0,1-5.59-2.2l-2.92-1.62a11.67,11.67,0,0,0-2.82-1.3,2.05,2.05,0,0,0-1.25.67l-.67-.47,5.11-7.62.68.47c0,1.43,1.13,2.78,3.38,4a18.14,18.14,0,0,0,5.31,2,21.78,21.78,0,0,0,4.32.46,16,16,0,0,0,9.12-2.49,11.3,11.3,0,0,0,5-7.8H46.77c-.93,0-1.58.58-1.93,1.71H44V148.1h.82a1.94,1.94,0,0,0,1.93,1.67H60.84a11.43,11.43,0,0,0-5.27-7.05,16.3,16.3,0,0,0-8.65-2.25,23.7,23.7,0,0,0-6.36.84,12,12,0,0,0-5.52,3,3.74,3.74,0,0,0-1.15,2.61l-.67.51-5.09-7.57.67-.52a2,2,0,0,0,1.25.72,11.14,11.14,0,0,0,2.77-1.25c.93-.56,1.88-1.1,2.86-1.62a24.09,24.09,0,0,1,6.67-2.45,32.59,32.59,0,0,1,5.57-.41q9.16,0,15,4.68Q69.38,144.19,69.38,153.15Z" fill="#4d6aaf"/>
          <path d="M105.11,171.42H92v-.73c1-.1,1.5-.37,1.5-.83s-.48-1.09-1.46-2.24l-8.24-9.85L79.6,161.3v7.43a2,2,0,0,0,1.66,2v.73H70.67v-.73a2,2,0,0,0,1.72-2V144.23a2,2,0,0,0-1.72-2v-.77H81.26v.77a2,2,0,0,0-1.66,2V154l11.22-9c.8-.67,1.21-1.24,1.21-1.73s-.52-.87-1.54-1v-.77h13.66v.77a5.78,5.78,0,0,0-3.07,1c-.38.29-1.23,1-2.55,2.09l-9.75,8.35,11.1,12.9c1,1.18,1.67,1.93,2,2.23a5.57,5.57,0,0,0,2.35,1.73,4.11,4.11,0,0,0,.89.1Z" fill="#4d6aaf"/>
          <path d="M136.49,167.25l-.63.48a1.85,1.85,0,0,0-1-.48,11.76,11.76,0,0,0-2.5,1.21L129.51,170a21.78,21.78,0,0,1-9.68,2,19.19,19.19,0,0,1-12.41-4A14.1,14.1,0,0,1,102,156.48a14.28,14.28,0,0,1,5.31-11.69,19.3,19.3,0,0,1,12.45-4,23.5,23.5,0,0,1,6.51.84,19.06,19.06,0,0,1,3.07,1.2c.11,0,1.08.55,2.92,1.57a14.62,14.62,0,0,0,2.56,1.2,1.9,1.9,0,0,0,1-.47l.63.47-4.58,6.56-.58-.47c0-1.81-1.33-3.2-4-4.18a18.36,18.36,0,0,0-6.26-1.05,12.83,12.83,0,0,0-8.07,2.57,8.86,8.86,0,0,0-3.7,7.42,9,9,0,0,0,3.58,7.4,12.74,12.74,0,0,0,8,2.56,18,18,0,0,0,6.34-1.17c2.71-1,4.06-2.38,4.06-4.18l.6-.38Z" fill="#4d6aaf"/>
          <path d="M172.23,171.42H161.64v-.73c1.15-.34,1.72-1,1.72-2V147H146.67v21.73a2,2,0,0,0,1.66,2v.73H137.74v-.73a2,2,0,0,0,1.71-2V144.23a2,2,0,0,0-1.71-2v-.78h34.49v.78a2,2,0,0,0-1.71,2v24.48a2,2,0,0,0,1.71,2Z" fill="#4d6aaf"/>
          <path d="M206,173.14h-.74a2,2,0,0,0-2-1.72H175.35v-.73a2,2,0,0,0,1.71-2V144.23a2,2,0,0,0-1.71-2v-.78h27a2,2,0,0,0,2-1.66h.78v8.88h-.77a2,2,0,0,0-2-1.71h-18.1v6.44h11.23a2.06,2.06,0,0,0,2-1.72h.72v8.7h-.72a2,2,0,0,0-2-1.71H184.28v7.22h18.94a1.94,1.94,0,0,0,2-1.66H206Z" fill="#4d6aaf"/>
          <path d="M245.63,172.84h-.73c-.28-1-.78-1.42-1.51-1.42H211.46c-.73,0-1.22.47-1.46,1.42h-.78v-8.11H210c.21.78.56,1.22,1,1.31a14.55,14.55,0,0,0,2,.06l9.74-20.46a4.25,4.25,0,0,0,.54-1.72c0-.9-.59-1.45-1.78-1.67v-.77h11.72v.77c-1.14.22-1.71.77-1.71,1.67a4.56,4.56,0,0,0,.5,1.72l9.74,20.46h1.62c.69,0,1.19-.45,1.51-1.37h.73ZM234,166.1,227.17,151,220.3,166.1Z" fill="#4d6aaf"/>
          <path d="M281.38,171.42h-9.94V170a8.65,8.65,0,0,0,1.09-.43c.18-.1.27-.38.27-.83V152.81L256,167.34v1.41c0,.6.46,1,1.36,1.26v1.41h-9.88V170a6.42,6.42,0,0,0,1-.36,1,1,0,0,0,.37-.9V144.19c0-.66-.46-1.09-1.37-1.3v-1.41h9.88v1.41c-.9.21-1.36.64-1.36,1.3v15.87l16.81-14.53v-1.36c0-.66-.45-1.08-1.36-1.29v-1.4h9.94v1.41c-.95.21-1.42.64-1.42,1.3v24.57c0,.6.47,1,1.42,1.26Z" fill="#4d6aaf"/>
          <path d="M312.52,148.7h-.73a2,2,0,0,0-2-1.71H301v21.73c0,.94.57,1.6,1.72,2v.73h-10.6v-.73a2,2,0,0,0,1.72-2V147H285a1.87,1.87,0,0,0-2,1.71h-.78v-8.88H283a1.91,1.91,0,0,0,2,1.66h24.8a2,2,0,0,0,2-1.66h.73Z" fill="#4d6aaf"/>
          <path d="M347.79,156.69a13.93,13.93,0,0,1-5.31,11.42,20.83,20.83,0,0,1-24.52-.06,15.43,15.43,0,0,1,0-23.15,20.63,20.63,0,0,1,24.67,0A14.53,14.53,0,0,1,347.79,156.69Zm-7.33-.1a9.67,9.67,0,0,0-2.9-7.29,10.88,10.88,0,0,0-14.63,0,10.12,10.12,0,0,0,0,14.28,10.94,10.94,0,0,0,14.61.05A9.36,9.36,0,0,0,340.46,156.59Z" fill="#4d6aaf"/>
          <path d="M381.07,150.35q0,8.82-12.39,8.82H358.05v9.56a2,2,0,0,0,1.66,2v.73H349.12v-.73a2,2,0,0,0,1.71-2V144.23a2,2,0,0,0-1.71-2v-.78h19.8Q381.07,141.48,381.07,150.35Zm-7.34,0c0-1.46-.48-2.38-1.43-2.79a10.78,10.78,0,0,0-4-.61H358.05v6.74h10.21c2.81,0,4.52-.51,5.11-1.52A4,4,0,0,0,373.73,150.33Z" fill="#4d6aaf"/>
        </g>
      </g>
    </g>
  </g>
</svg>
