<svg xmlns="http://www.w3.org/2000/svg" viewBox="0 0 474 474"><defs><style>.cls-1{fill:#032f4a;}.cls-2{fill:#fff;}.cls-3{fill:#ff1c25;}</style></defs><title>phone icon</title><g id="Слой_2" data-name="Слой 2"><g id="Слой_1-2" data-name="Слой 1"><rect class="cls-1" width="474" height="474"/><path class="cls-2" d="M71,154c.25-1.37.55-2.73.75-4.1a31.56,31.56,0,0,1,9.93-19.16c6.54-6.13,12.55-12.87,19.44-18.56,13.7-11.32,26.76-11.85,40.67-.9a99.92,99.92,0,0,1,31.12,42c4.85,12.14,1.91,22.87-6.63,32.32-3.48,3.84-7,7.72-10.78,11.22-5.27,4.85-6.81,10.71-4.25,17A109.38,109.38,0,0,0,161,233.1c10.35,15.67,23.34,29.17,36.61,42.37,13.8,13.74,28,27,44.2,38,6.73,4.55,13.71,8.6,21.87,10.14a14.27,14.27,0,0,0,13.8-4.46c3.67-3.81,7.52-7.46,11.37-11.09,9.91-9.34,21.31-12.25,34-6.78,16.92,7.3,31.64,17.77,42.65,32.76,8,10.85,8.11,22.66.7,33.84a106.42,106.42,0,0,1-10.13,12.6c-3.93,4.31-8.39,8.13-12.38,12.38-6.18,6.59-14,9-22.68,9.59-17.54,1.14-34.08-3.35-50.19-9.58-33.77-13.05-63.26-33.05-90.46-56.61-30.83-26.7-57.75-56.83-79.11-91.69C88.74,224.12,78.49,202.64,73.38,179c-1-4.82-1.61-9.74-2.39-14.62Z"/><path class="cls-2" d="M234.73,71.39a144,144,0,0,1,69.86,18.32A199.92,199.92,0,0,1,385,170.25c12,21.85,18.49,45.32,18,70.4-.12,6.32-.14,12.77-3,18.73a17,17,0,0,1-17.64,9.39,16.47,16.47,0,0,1-14.23-13.53,33.34,33.34,0,0,1-.07-8.7,88.73,88.73,0,0,0-7.57-47.42c-18.4-40.75-48.15-70.16-89.77-87a85.73,85.73,0,0,0-43.23-5.62c-7.88,1-15-.49-19.46-7.9C201.32,87.44,208.47,74,222,72.36,226.89,71.77,231.87,71.59,234.73,71.39Z"/><path class="cls-3" d="M242,135.14c4.26,1.1,11.09,2.34,17.57,4.59,37.18,12.93,62.26,38.17,75.27,75.27a112.08,112.08,0,0,1,4.39,18.23,17.14,17.14,0,0,1-13,19.37,16.92,16.92,0,0,1-20.51-11.9c-1.77-6-2.57-12.34-4.89-18.09-11.27-27.83-31.26-45.76-60.91-52.34-2.21-.49-4.45-.91-6.6-1.61a17.16,17.16,0,0,1-11.74-19.28C223,140.83,230,135.24,242,135.14Z"/></g></g></svg>