<svg xmlns="http://www.w3.org/2000/svg" viewBox="0 0 474 474"><defs><style>.cls-1{fill:#7d3daf;}.cls-2{fill:#fff;}</style></defs><title>viber icon</title><g id="Слой_2" data-name="Слой 2"><g id="Слой_1-2" data-name="Слой 1"><rect class="cls-1" width="474" height="474"/><path class="cls-2" d="M405.86,157l-.11-.42c-8.54-34.53-47-71.58-82.39-79.28l-.4-.09a457.93,457.93,0,0,0-172.36,0l-.41.09c-35.34,7.7-73.85,44.75-82.4,79.28l-.09.42a337.26,337.26,0,0,0,0,145.32l.09.43c8.19,33.05,43.82,68.39,77.86,78.11v38.54c0,13.95,17,20.8,26.67,10.74l39-40.59c8.47.47,16.95.74,25.42.74A459.82,459.82,0,0,0,323,382.13l.4-.08c35.35-7.71,73.85-44.76,82.39-79.28l.11-.42A337.31,337.31,0,0,0,405.86,157ZM375,295.35c-5.7,22.53-34.93,50.53-58.16,55.7a426.88,426.88,0,0,1-91.68,7.41,2.19,2.19,0,0,0-1.62.65L195,388.38,164.67,419.5a3.55,3.55,0,0,1-6.11-2.45V353.21a2.21,2.21,0,0,0-1.79-2.16h0c-23.23-5.17-52.45-33.17-58.16-55.7a305.88,305.88,0,0,1,0-131.34c5.71-22.52,34.93-50.53,58.16-55.7a426.49,426.49,0,0,1,160.05,0C340,113.48,369.26,141.49,375,164A305.88,305.88,0,0,1,375,295.35Z"/><path class="cls-2" d="M287.31,324.82c-3.57-1.08-7-1.81-10.14-3.12-32.75-13.59-62.89-31.12-86.76-58-13.58-15.28-24.2-32.53-33.19-50.78-4.26-8.66-7.85-17.66-11.5-26.6-3.34-8.15,1.57-16.57,6.75-22.71a53.27,53.27,0,0,1,17.87-13.42c5.28-2.54,10.49-1.08,14.35,3.4a185.42,185.42,0,0,1,22.2,31.07c3.81,6.9,2.76,15.33-4.15,20-1.68,1.14-3.21,2.48-4.77,3.77a15.51,15.51,0,0,0-3.61,3.8,10.39,10.39,0,0,0-.69,9.14c8.52,23.43,22.89,41.64,46.47,51.45,3.77,1.57,7.56,3.4,11.9,2.89,7.28-.85,9.64-8.83,14.74-13s11.36-4.13,16.73-.73,10.58,7.05,15.75,10.73A182.74,182.74,0,0,1,314.09,284c4.5,4,6.06,9.18,3.52,14.56-4.65,9.87-11.41,18.07-21.16,23.31-2.75,1.48-6,2-9.14,2.91C283.74,323.74,290.41,323.87,287.31,324.82Z"/><path class="cls-2" d="M236.87,138.92c42.83,1.2,78,29.63,85.56,72,1.28,7.21,1.74,14.59,2.31,21.91.24,3.08-1.5,6-4.83,6.05s-5-2.83-5.2-5.91c-.44-6.1-.75-12.22-1.59-18.26-4.43-31.91-29.88-58.31-61.64-64-4.78-.85-9.67-1.08-14.51-1.58-3.06-.33-7.07-.51-7.75-4.32-.57-3.19,2.13-5.72,5.16-5.89.83,0,1.66,0,2.49,0C279.7,140.12,236,138.91,236.87,138.92Z"/><path class="cls-2" d="M302,223.31a19.9,19.9,0,0,1-.42,3c-1.14,4.3-7.66,4.84-9.16.5a13,13,0,0,1-.52-4.14,51.8,51.8,0,0,0-6.56-26A48.46,48.46,0,0,0,265,177.55a58.67,58.67,0,0,0-16.19-5c-2.44-.4-4.91-.65-7.36-1-3-.41-4.56-2.31-4.42-5.24a4.61,4.61,0,0,1,5.13-4.55c9.83.56,19.33,2.69,28.07,7.31,17.77,9.42,27.92,24.27,30.88,44.11.14.9.35,1.79.42,2.69.17,2.23.28,4.46.45,7.4C301.9,223.84,301.8,220.37,302,223.31Z"/><path class="cls-2" d="M275.32,222.27c-3.58.06-5.5-1.92-5.87-5.21a54,54,0,0,0-1-6.84,19.24,19.24,0,0,0-7.1-11.15,18.58,18.58,0,0,0-5.79-2.79c-2.63-.76-5.36-.55-8-1.19a4.89,4.89,0,0,1-4-5.68,5.15,5.15,0,0,1,5.43-4.14c16.6,1.2,28.47,9.79,30.17,29.34a13.48,13.48,0,0,1-.05,4.16,4.25,4.25,0,0,1-3.83,3.5C271.74,222.33,277,222.16,275.32,222.27Z"/></g></g></svg>